<?xml version="1.0" encoding="UTF-8"?>
<svg version="1.1" xmlns="http://www.w3.org/2000/svg" width="1024" height="1024">
<path d="M0 0 C2.70654608 -0.00577736 5.41302321 -0.01352753 8.11955017 -0.02363622 C13.95020107 -0.04149811 19.78061955 -0.04127027 25.61128044 -0.02840042 C34.28227003 -0.00931416 42.95306724 -0.01924564 51.62405595 -0.03444196 C67.11929734 -0.06064162 82.61443504 -0.05854062 98.10968606 -0.04404739 C111.66988535 -0.03142765 125.23004681 -0.02820557 138.79025078 -0.03416061 C139.69267871 -0.03454254 140.59510663 -0.03492446 141.52488086 -0.03531796 C145.18889361 -0.03687487 148.85290635 -0.03846689 152.51691906 -0.04011678 C186.82802969 -0.05538242 221.13907461 -0.04159097 255.45017509 -0.0146323 C285.87924839 0.0090945 316.30821704 0.0069675 346.73728943 -0.01693726 C380.99053088 -0.04375684 415.24371438 -0.05430143 449.49696487 -0.03887594 C453.15366644 -0.03727255 456.81036803 -0.03570833 460.46706963 -0.03416061 C461.81745221 -0.03356753 461.81745221 -0.03356753 463.19511525 -0.03296247 C476.74166064 -0.02729444 490.2881639 -0.03389022 503.83470345 -0.04655838 C519.24944226 -0.06090246 534.66406197 -0.05717917 550.07878608 -0.03015466 C558.68740617 -0.0155569 567.29576783 -0.01439238 575.90438079 -0.03338553 C581.67489311 -0.04470426 587.44520086 -0.03743016 593.21568318 -0.01586169 C596.48989116 -0.00411567 599.76349959 -0.00242357 603.03770632 -0.0178916 C638.87890847 -0.17407469 673.90432492 8.64656818 705.06175232 26.63491821 C705.95765076 27.14796509 706.85354919 27.66101196 707.77659607 28.18960571 C712.94328024 31.25874323 717.89867844 34.53575029 722.78831482 38.02944946 C724.72404356 39.39643316 726.68388498 40.68269682 728.68675232 41.94741821 C729.47050232 42.50429321 730.25425232 43.06116821 731.06175232 43.63491821 C731.06175232 44.29491821 731.06175232 44.95491821 731.06175232 45.63491821 C731.82487732 45.90304321 732.58800232 46.17116821 733.37425232 46.44741821 C736.04161803 47.62602167 737.0869746 48.5847673 739.06175232 50.63491821 C740.13861312 51.53852171 741.22229024 52.43404844 742.31175232 53.32241821 C745.67658474 56.17121541 748.45124424 59.32136012 751.29222107 62.68179321 C753.51955151 65.14021534 755.9672018 67.17920385 758.58128357 69.21304321 C760.29842499 70.8622239 761.04435606 72.49796038 762.06175232 74.63491821 C762.76300232 75.33616821 763.46425232 76.03741821 764.18675232 76.75991821 C766.06175232 78.63491821 766.06175232 78.63491821 766.06175232 80.63491821 C766.72175232 80.63491821 767.38175232 80.63491821 768.06175232 80.63491821 C769.44312567 82.30957677 770.74321948 84.05180953 771.99925232 85.82241821 C772.68890076 86.7853479 773.37854919 87.74827759 774.08909607 88.74038696 C775.85092349 91.32556343 777.47737964 93.93885863 779.06175232 96.63491821 C779.7172406 97.68099243 779.7172406 97.68099243 780.38597107 98.74819946 C802.15512446 133.86577356 811.89107717 172.46087696 811.69667053 213.57316589 C811.7024479 216.27971197 811.71019806 218.98618911 811.72030675 221.69271606 C811.73816864 227.52336696 811.7379408 233.35378544 811.72507095 239.18444633 C811.70598469 247.85543592 811.71591617 256.52623313 811.73111249 265.19722185 C811.75731215 280.69246323 811.75521115 296.18760094 811.74071793 311.68285196 C811.72809818 325.24305125 811.72487611 338.80321271 811.73083115 352.36341667 C811.73121307 353.2658446 811.731595 354.16827253 811.7319885 355.09804675 C811.7335454 358.76205951 811.73513742 362.42607224 811.73678731 366.09008495 C811.75205295 400.40119558 811.7382615 434.7122405 811.71130283 469.02334098 C811.68757604 499.45241428 811.68970303 529.88138293 811.71360779 560.31045532 C811.74042737 594.56369677 811.75097197 628.81688027 811.73554647 663.07013077 C811.73394308 666.72683234 811.73237887 670.38353392 811.73083115 674.04023552 C811.73043576 674.94049058 811.73004037 675.84074563 811.729633 676.76828115 C811.72396497 690.31482654 811.73056076 703.8613298 811.74322891 717.40786934 C811.75757299 732.82260815 811.7538497 748.23722786 811.72682519 763.65195198 C811.71222743 772.26057207 811.71106291 780.86893372 811.73005606 789.47754668 C811.7413748 795.24805901 811.73410069 801.01836676 811.71253222 806.78884907 C811.70078621 810.06305706 811.6990941 813.33666548 811.71456213 816.61087222 C811.87074523 852.45207436 803.05010235 887.47749081 785.06175232 918.63491821 C784.54870544 919.53081665 784.03565857 920.42671509 783.50706482 921.34976196 C780.4379273 926.51644613 777.16092025 931.47184434 773.66722107 936.36148071 C772.30023737 938.29720946 771.01397371 940.25705088 769.74925232 942.25991821 C769.19237732 943.04366821 768.63550232 943.82741821 768.06175232 944.63491821 C767.40175232 944.63491821 766.74175232 944.63491821 766.06175232 944.63491821 C765.79362732 945.39804321 765.52550232 946.16116821 765.24925232 946.94741821 C764.07064887 949.61478392 763.11190323 950.66014049 761.06175232 952.63491821 C760.15814882 953.71177902 759.2626221 954.79545614 758.37425232 955.88491821 C755.52545512 959.24975064 752.37531041 962.02441013 749.01487732 964.86538696 C746.55645519 967.09271741 744.51746668 969.54036769 742.48362732 972.15444946 C740.83444664 973.87159089 739.19871015 974.61752195 737.06175232 975.63491821 C736.36050232 976.33616821 735.65925232 977.03741821 734.93675232 977.75991821 C734.31800232 978.37866821 733.69925232 978.99741821 733.06175232 979.63491821 C732.40175232 979.63491821 731.74175232 979.63491821 731.06175232 979.63491821 C731.06175232 980.29491821 731.06175232 980.95491821 731.06175232 981.63491821 C729.38709376 983.01629156 727.644861 984.31638537 725.87425232 985.57241821 C724.91132263 986.26206665 723.94839294 986.95171509 722.95628357 987.66226196 C720.3711071 989.42408938 717.7578119 991.05054554 715.06175232 992.63491821 C714.0156781 993.29040649 714.0156781 993.29040649 712.94847107 993.95913696 C678.20748963 1015.49484304 639.93465982 1025.46203686 599.25048828 1025.26983643 C596.54551789 1025.27561289 593.84061659 1025.28336228 591.13566536 1025.29347265 C585.30533209 1025.31134451 579.47523122 1025.31110031 573.64488792 1025.29823685 C564.97430104 1025.27915987 556.30390671 1025.28907744 547.63332072 1025.30427838 C532.13871971 1025.33048583 516.64422235 1025.32837373 501.1496117 1025.31388382 C487.58875329 1025.30126581 474.02793271 1025.29804119 460.46706963 1025.30399704 C459.56471808 1025.30437897 458.66236654 1025.30476089 457.73267101 1025.30515439 C454.06897818 1025.30671129 450.40528537 1025.30830331 446.74159258 1025.30995321 C412.42878299 1025.32522096 378.11603909 1025.31142449 343.80323965 1025.28446872 C313.37432001 1025.26074575 282.94550503 1025.26286529 252.5165863 1025.28677368 C218.26480743 1025.31359632 184.01308652 1025.32413581 149.7612986 1025.30871236 C146.10428267 1025.30710898 142.44726673 1025.30554476 138.79025078 1025.30399704 C137.88991664 1025.30360165 136.98958251 1025.30320627 136.06196552 1025.3027989 C122.51632652 1025.29713172 108.97072966 1025.30372513 95.42509651 1025.31639481 C80.00926412 1025.33074258 64.59355083 1025.32700804 49.17773313 1025.29999109 C40.56932843 1025.28539864 31.96118215 1025.2842209 23.3527846 1025.30322196 C17.58110409 1025.31454742 11.80962798 1025.30725484 6.03797744 1025.28569811 C2.76390506 1025.27396101 -0.50956875 1025.27224601 -3.78363972 1025.28772803 C-40.04711031 1025.44588906 -75.40081628 1016.84265879 -106.93824768 998.63491821 C-108.28209534 997.8653479 -108.28209534 997.8653479 -109.65309143 997.08023071 C-114.8197756 994.01109319 -119.7751738 990.73408614 -124.66481018 987.24038696 C-126.60053892 985.87340326 -128.56038034 984.58713961 -130.56324768 983.32241821 C-131.34699768 982.76554321 -132.13074768 982.20866821 -132.93824768 981.63491821 C-132.93824768 980.97491821 -132.93824768 980.31491821 -132.93824768 979.63491821 C-133.70137268 979.36679321 -134.46449768 979.09866821 -135.25074768 978.82241821 C-137.91811339 977.64381476 -138.96346996 976.68506913 -140.93824768 974.63491821 C-142.01510849 973.73131472 -143.09878561 972.83578799 -144.18824768 971.94741821 C-147.55308011 969.09862101 -150.3277396 965.9484763 -153.16871643 962.58804321 C-155.39604688 960.12962109 -157.84369716 958.09063258 -160.45777893 956.05679321 C-162.17492036 954.40761253 -162.92085142 952.77187605 -163.93824768 950.63491821 C-164.63949768 949.93366821 -165.34074768 949.23241821 -166.06324768 948.50991821 C-166.68199768 947.89116821 -167.30074768 947.27241821 -167.93824768 946.63491821 C-167.93824768 945.97491821 -167.93824768 945.31491821 -167.93824768 944.63491821 C-168.59824768 944.63491821 -169.25824768 944.63491821 -169.93824768 944.63491821 C-171.31962103 942.96025965 -172.61971484 941.2180269 -173.87574768 939.44741821 C-174.56539612 938.48448853 -175.25504456 937.52155884 -175.96559143 936.52944946 C-177.72741885 933.944273 -179.35387501 931.33097779 -180.93824768 928.63491821 C-181.37523987 927.9375354 -181.81223206 927.24015259 -182.26246643 926.52163696 C-203.80911569 891.76300219 -213.76962574 853.48064948 -213.56643677 812.77655029 C-213.57149513 810.06659153 -213.57853058 807.35670154 -213.58793491 804.64676082 C-213.60428336 798.80571087 -213.60250687 792.96489797 -213.58810806 787.12384605 C-213.56675535 778.43770969 -213.57444943 769.75175889 -213.58748328 761.06561462 C-213.60983526 745.54524483 -213.60400606 730.0249846 -213.58604718 714.50461484 C-213.57043334 700.92562194 -213.56463818 687.34666732 -213.56838799 673.76766586 C-213.56862479 672.86429845 -213.56886159 671.96093103 -213.56910556 671.03018885 C-213.5700806 667.36249735 -213.57110143 663.69480587 -213.57219067 660.02711441 C-213.58225483 625.68108541 -213.56406069 591.33512359 -213.53247031 556.98911039 C-213.50459913 526.51327519 -213.49965456 496.0375198 -213.5146637 465.56167603 C-213.51848653 457.75265571 -213.52228144 449.94363539 -213.52583408 442.13461494 C-213.5262719 441.17305437 -213.52670971 440.21149381 -213.52716079 439.22079504 C-213.53841231 413.70580913 -213.53104339 388.19082903 -213.51795334 362.67584503 C-213.51656485 359.92901808 -213.51518415 357.18219113 -213.51381492 354.43536417 C-213.51290554 352.61342962 -213.51198287 350.79149507 -213.51104681 348.96956053 C-213.50426642 335.39908305 -213.50689754 321.82862866 -213.51399422 308.25815201 C-213.52197759 292.82419855 -213.51533328 277.3903253 -213.48981918 261.95638938 C-213.47594712 253.33099575 -213.47285918 244.70576377 -213.48575388 236.08036769 C-213.4932601 230.30629823 -213.48601867 224.53236386 -213.46719577 218.75832064 C-213.45689375 215.47720252 -213.45477052 212.19646765 -213.46617431 208.9153439 C-213.51112154 194.80202545 -212.81707278 181.62035596 -209.46533989 167.88133441 C-208.69177188 164.58446213 -208.05689986 161.26288701 -207.41851977 157.93757463 C-206.63088291 154.16126299 -205.5398839 150.49758545 -204.37574768 146.82241821 C-204.12252747 146.02271606 -203.86930725 145.22301392 -203.6084137 144.39907837 C-201.50483188 137.96963745 -199.03238372 131.72942853 -196.37574768 125.50991821 C-196.01215149 124.6580896 -195.6485553 123.80626099 -195.27394104 122.92861938 C-192.81110064 117.30265975 -190.01120743 111.95002245 -186.93824768 106.63491821 C-186.42520081 105.73901978 -185.91215393 104.84312134 -185.38356018 103.92007446 C-182.31442266 98.75339029 -179.03741561 93.79799209 -175.54371643 88.90835571 C-174.17673273 86.97262697 -172.89046907 85.01278555 -171.62574768 83.00991821 C-171.06887268 82.22616821 -170.51199768 81.44241821 -169.93824768 80.63491821 C-169.27824768 80.63491821 -168.61824768 80.63491821 -167.93824768 80.63491821 C-167.67012268 79.87179321 -167.40199768 79.10866821 -167.12574768 78.32241821 C-165.94714423 75.65505251 -164.9883986 74.60969593 -162.93824768 72.63491821 C-162.03464418 71.55805741 -161.13911746 70.47438029 -160.25074768 69.38491821 C-157.40195048 66.02008579 -154.25180577 63.24542629 -150.89137268 60.40444946 C-148.43295056 58.17711902 -146.39396204 55.72946873 -144.36012268 53.11538696 C-142.710942 51.39824554 -141.07520551 50.65231447 -138.93824768 49.63491821 C-138.23699768 48.93366821 -137.53574768 48.23241821 -136.81324768 47.50991821 C-136.19449768 46.89116821 -135.57574768 46.27241821 -134.93824768 45.63491821 C-134.27824768 45.63491821 -133.61824768 45.63491821 -132.93824768 45.63491821 C-132.93824768 44.97491821 -132.93824768 44.31491821 -132.93824768 43.63491821 C-131.26358912 42.25354487 -129.52135636 40.95345106 -127.75074768 39.69741821 C-126.78781799 39.00776978 -125.82488831 38.31812134 -124.83277893 37.60757446 C-122.24760247 35.84574705 -119.63430726 34.21929089 -116.93824768 32.63491821 C-116.24086487 32.19792603 -115.54348206 31.76093384 -114.82496643 31.31069946 C-79.70739233 9.54154607 -41.11228894 -0.19440663 0 0 Z " fill="#FEFEFE" transform="translate(212.93824768066406,-0.634918212890625)"/>
<path d="M0 0 C2.0703125 0.93286133 2.0703125 0.93286133 4.125 2.08203125 C5.29119873 2.72833496 5.29119873 2.72833496 6.48095703 3.38769531 C7.31224121 3.85788086 8.14352539 4.32806641 9 4.8125 C10.32233643 5.55064941 10.32233643 5.55064941 11.67138672 6.30371094 C14.45257711 7.8604686 17.2271991 9.4283541 20 11 C20.84723633 11.47937012 21.69447266 11.95874023 22.56738281 12.45263672 C34.03256488 18.95016967 45.43537756 25.55674535 56.84741211 32.14697266 C74.44136694 42.30194197 92.08580896 52.36766982 109.77685547 62.35253906 C123.8555809 70.30119894 137.87720587 78.34729668 151.875 86.4375 C160.31027482 91.31222519 168.76541538 96.14910744 177.25 100.9375 C178.19423828 101.47157471 179.13847656 102.00564941 180.11132812 102.5559082 C184.23242891 104.88479746 188.35826944 107.20259879 192.5078125 109.48046875 C193.17135742 109.84857666 193.83490234 110.21668457 194.51855469 110.59594727 C196.22493107 111.54181476 197.93644803 112.47839283 199.6484375 113.4140625 C202 115 202 115 203 118 C202.41323486 118.3309668 201.82646973 118.66193359 201.22192383 119.00292969 C174.23725724 134.12194725 174.23725724 134.12194725 147.6171875 149.8671875 C143.77200857 152.17607865 139.82492083 154.29242329 135.88232422 156.42919922 C131.2679576 158.9439235 126.69692414 161.53413657 122.125 164.125 C121.13757813 164.68413086 120.15015625 165.24326172 119.1328125 165.81933594 C116.0877389 167.54481291 113.04373127 169.27215645 110 171 C109.05608398 171.5352832 108.11216797 172.07056641 107.13964844 172.62207031 C97.22303689 178.24928455 87.34506499 183.91848544 77.6171875 189.8671875 C73.77200857 192.17607865 69.82492083 194.29242329 65.88232422 196.42919922 C61.2679576 198.9439235 56.69692414 201.53413657 52.125 204.125 C51.13757813 204.68413086 50.15015625 205.24326172 49.1328125 205.81933594 C46.0877389 207.54481291 43.04373127 209.27215645 40 211 C39.05608398 211.5352832 38.11216797 212.07056641 37.13964844 212.62207031 C27.62398071 218.02176764 18.12204469 223.43259142 8.79101562 229.14746094 C5.27576488 231.28924415 1.7046596 233.20634128 -2 235 C0.66378461 236.67139426 3.33103333 238.33690515 6 240 C7.00289062 240.62777344 8.00578125 241.25554687 9.0390625 241.90234375 C10.11929688 242.57394531 11.19953125 243.24554688 12.3125 243.9375 C13.31925781 244.56527344 14.32601562 245.19304687 15.36328125 245.83984375 C19.20591927 248.16952673 23.16048685 250.28736096 27.11108398 252.42700195 C31.72840664 254.94110741 36.30107997 257.53300552 40.875 260.125 C41.86242187 260.68413086 42.84984375 261.24326172 43.8671875 261.81933594 C46.9122611 263.54481291 49.95626873 265.27215645 53 267 C54.41587402 267.8029248 54.41587402 267.8029248 55.86035156 268.62207031 C65.77696311 274.24928455 75.65493501 279.91848544 85.3828125 285.8671875 C89.22070554 288.17170245 93.16049771 290.2834401 97.09570312 292.41601562 C101.82334907 294.99444256 106.50388355 297.65518288 111.1875 300.3125 C113.22385368 301.46633055 115.26031227 302.61997597 117.296875 303.7734375 C118.27720703 304.32870117 119.25753906 304.88396484 120.26757812 305.45605469 C122.57617811 306.76052094 124.88781618 308.05905792 127.203125 309.3515625 C135.00246208 313.70622592 142.73094909 318.17044186 150.4375 322.6875 C159.98514012 328.28305255 169.6010216 333.74410008 179.27514648 339.11791992 C185.36291613 342.50317264 191.39825381 345.96405507 197.39746094 349.50415039 C199.56899609 350.75227383 201.74541512 351.91161411 204 353 C203 356 203 356 200.31640625 357.515625 C199.06812982 358.10025426 197.81648581 358.67771946 196.5625 359.25 C188.93335349 362.89614674 181.61957485 366.99878627 174.3125 371.25 C173.19262695 371.9011377 172.07275391 372.55227539 170.91894531 373.22314453 C168.67460676 374.52970022 166.43078466 375.83714348 164.1875 377.14550781 C159.57574929 379.82863116 154.94647697 382.48049769 150.3125 385.125 C149.47259521 385.60477295 148.63269043 386.0845459 147.76733398 386.57885742 C140.3391583 390.81693183 132.88944707 395.01666882 125.44018555 399.2175293 C119.47824807 402.58460782 113.54186043 405.99191832 107.625 409.4375 C100.25438077 413.72965305 92.82469925 417.90927593 85.375 422.0625 C77.65450066 426.36776194 69.98109987 430.73220482 62.38134766 435.24682617 C55.58022088 439.27563894 48.69523455 443.15238799 41.80834961 447.03222656 C31.84697889 452.64421988 21.92278956 458.32016215 12 464 C5.07 467.96 5.07 467.96 -2 472 C-2.33 550.21 -2.66 628.42 -3 709 C-6.61857451 707.5525702 -9.7681961 706.11852132 -13.14453125 704.25 C-14.1082666 703.71761719 -15.07200195 703.18523438 -16.06494141 702.63671875 C-17.03351074 702.09660156 -18.00208008 701.55648437 -19 701 C-20.31556885 700.26716797 -20.31556885 700.26716797 -21.65771484 699.51953125 C-24.33815116 698.01973339 -27.01371811 696.51162784 -29.6875 695 C-30.66428711 694.44820068 -31.64107422 693.89640137 -32.64746094 693.32788086 C-41.03211463 688.57697752 -49.36158687 683.73411807 -57.66674805 678.84570312 C-62.24462495 676.15792097 -66.83897797 673.5230787 -71.5078125 670.99609375 C-77.12308933 667.9566457 -82.62461317 664.74154771 -88.125 661.5 C-97.52004511 655.98985371 -106.98467277 650.62055753 -116.50048828 645.32226562 C-125.13410819 640.50661537 -133.69640146 635.574007 -142.24926758 630.61669922 C-149.81642921 626.23879549 -157.42567401 621.94257698 -165.0625 617.6875 C-172.70569071 613.42866944 -180.31554591 609.12897605 -187.82250977 604.63354492 C-195.13555705 600.26945303 -202.56625723 596.18148031 -210 592 C-210 434.92 -210 277.84 -210 116 C-202.41 111.71 -194.82 107.42 -187 103 C-176.48295714 97.01616527 -165.98806677 91.01414533 -155.5769043 84.84985352 C-148.76945955 80.83451549 -141.88041489 76.96719522 -134.99169922 73.09350586 C-128.03600538 69.17344868 -121.13413178 65.16917157 -114.25 61.125 C-104.48968318 55.39677993 -94.62683153 49.87175849 -84.72241211 44.3972168 C-75.07243652 39.05776307 -65.51653579 33.57299555 -56 28 C-52.89260113 26.18098479 -49.78496206 24.36238731 -46.67651367 22.54516602 C-44.62748437 21.34686735 -42.57939806 20.14695405 -40.5324707 18.94506836 C-34.93007583 15.66618604 -29.28142814 12.49996861 -23.57128906 9.4128418 C-21.21971245 8.12072503 -18.90636543 6.78351886 -16.6015625 5.41015625 C-15.93769531 5.01892578 -15.27382813 4.62769531 -14.58984375 4.22460938 C-13.25056591 3.43249176 -11.91741866 2.62993828 -10.58984375 1.81835938 C-6.51134875 -0.55742406 -4.50800811 -1.30625336 0 0 Z " fill="#000000" transform="translate(519,156)"/>
<path d="M0 0 C2.70654608 -0.00577736 5.41302321 -0.01352753 8.11955017 -0.02363622 C13.95020107 -0.04149811 19.78061955 -0.04127027 25.61128044 -0.02840042 C34.28227003 -0.00931416 42.95306724 -0.01924564 51.62405595 -0.03444196 C67.11929734 -0.06064162 82.61443504 -0.05854062 98.10968606 -0.04404739 C111.66988535 -0.03142765 125.23004681 -0.02820557 138.79025078 -0.03416061 C139.69267871 -0.03454254 140.59510663 -0.03492446 141.52488086 -0.03531796 C145.18889361 -0.03687487 148.85290635 -0.03846689 152.51691906 -0.04011678 C186.82802969 -0.05538242 221.13907461 -0.04159097 255.45017509 -0.0146323 C285.87924839 0.0090945 316.30821704 0.0069675 346.73728943 -0.01693726 C380.99053088 -0.04375684 415.24371438 -0.05430143 449.49696487 -0.03887594 C453.15366644 -0.03727255 456.81036803 -0.03570833 460.46706963 -0.03416061 C461.81745221 -0.03356753 461.81745221 -0.03356753 463.19511525 -0.03296247 C476.74166064 -0.02729444 490.2881639 -0.03389022 503.83470345 -0.04655838 C519.24944226 -0.06090246 534.66406197 -0.05717917 550.07878608 -0.03015466 C558.68740617 -0.0155569 567.29576783 -0.01439238 575.90438079 -0.03338553 C581.67489311 -0.04470426 587.44520086 -0.03743016 593.21568318 -0.01586169 C596.48989116 -0.00411567 599.76349959 -0.00242357 603.03770632 -0.0178916 C638.87890847 -0.17407469 673.90432492 8.64656818 705.06175232 26.63491821 C705.95765076 27.14796509 706.85354919 27.66101196 707.77659607 28.18960571 C712.94328024 31.25874323 717.89867844 34.53575029 722.78831482 38.02944946 C724.72404356 39.39643316 726.68388498 40.68269682 728.68675232 41.94741821 C729.47050232 42.50429321 730.25425232 43.06116821 731.06175232 43.63491821 C731.06175232 44.29491821 731.06175232 44.95491821 731.06175232 45.63491821 C731.82487732 45.90304321 732.58800232 46.17116821 733.37425232 46.44741821 C736.04161803 47.62602167 737.0869746 48.5847673 739.06175232 50.63491821 C740.13861312 51.53852171 741.22229024 52.43404844 742.31175232 53.32241821 C745.67658474 56.17121541 748.45124424 59.32136012 751.29222107 62.68179321 C753.51955151 65.14021534 755.9672018 67.17920385 758.58128357 69.21304321 C760.29842499 70.8622239 761.04435606 72.49796038 762.06175232 74.63491821 C762.76300232 75.33616821 763.46425232 76.03741821 764.18675232 76.75991821 C766.06175232 78.63491821 766.06175232 78.63491821 766.06175232 80.63491821 C766.72175232 80.63491821 767.38175232 80.63491821 768.06175232 80.63491821 C769.44312567 82.30957677 770.74321948 84.05180953 771.99925232 85.82241821 C772.68890076 86.7853479 773.37854919 87.74827759 774.08909607 88.74038696 C775.85092349 91.32556343 777.47737964 93.93885863 779.06175232 96.63491821 C779.7172406 97.68099243 779.7172406 97.68099243 780.38597107 98.74819946 C802.15512446 133.86577356 811.89107717 172.46087696 811.69667053 213.57316589 C811.7024479 216.27971197 811.71019806 218.98618911 811.72030675 221.69271606 C811.73816864 227.52336696 811.7379408 233.35378544 811.72507095 239.18444633 C811.70598469 247.85543592 811.71591617 256.52623313 811.73111249 265.19722185 C811.75731215 280.69246323 811.75521115 296.18760094 811.74071793 311.68285196 C811.72809818 325.24305125 811.72487611 338.80321271 811.73083115 352.36341667 C811.73121307 353.2658446 811.731595 354.16827253 811.7319885 355.09804675 C811.7335454 358.76205951 811.73513742 362.42607224 811.73678731 366.09008495 C811.75205295 400.40119558 811.7382615 434.7122405 811.71130283 469.02334098 C811.68757604 499.45241428 811.68970303 529.88138293 811.71360779 560.31045532 C811.74042737 594.56369677 811.75097197 628.81688027 811.73554647 663.07013077 C811.73394308 666.72683234 811.73237887 670.38353392 811.73083115 674.04023552 C811.73043576 674.94049058 811.73004037 675.84074563 811.729633 676.76828115 C811.72396497 690.31482654 811.73056076 703.8613298 811.74322891 717.40786934 C811.75757299 732.82260815 811.7538497 748.23722786 811.72682519 763.65195198 C811.71222743 772.26057207 811.71106291 780.86893372 811.73005606 789.47754668 C811.7413748 795.24805901 811.73410069 801.01836676 811.71253222 806.78884907 C811.70078621 810.06305706 811.6990941 813.33666548 811.71456213 816.61087222 C811.87074523 852.45207436 803.05010235 887.47749081 785.06175232 918.63491821 C784.54870544 919.53081665 784.03565857 920.42671509 783.50706482 921.34976196 C780.4379273 926.51644613 777.16092025 931.47184434 773.66722107 936.36148071 C772.30023737 938.29720946 771.01397371 940.25705088 769.74925232 942.25991821 C769.19237732 943.04366821 768.63550232 943.82741821 768.06175232 944.63491821 C767.40175232 944.63491821 766.74175232 944.63491821 766.06175232 944.63491821 C765.79362732 945.39804321 765.52550232 946.16116821 765.24925232 946.94741821 C764.07064887 949.61478392 763.11190323 950.66014049 761.06175232 952.63491821 C760.15814882 953.71177902 759.2626221 954.79545614 758.37425232 955.88491821 C755.52545512 959.24975064 752.37531041 962.02441013 749.01487732 964.86538696 C746.55645519 967.09271741 744.51746668 969.54036769 742.48362732 972.15444946 C740.83444664 973.87159089 739.19871015 974.61752195 737.06175232 975.63491821 C736.36050232 976.33616821 735.65925232 977.03741821 734.93675232 977.75991821 C734.31800232 978.37866821 733.69925232 978.99741821 733.06175232 979.63491821 C732.40175232 979.63491821 731.74175232 979.63491821 731.06175232 979.63491821 C731.06175232 980.29491821 731.06175232 980.95491821 731.06175232 981.63491821 C729.38709376 983.01629156 727.644861 984.31638537 725.87425232 985.57241821 C724.91132263 986.26206665 723.94839294 986.95171509 722.95628357 987.66226196 C720.3711071 989.42408938 717.7578119 991.05054554 715.06175232 992.63491821 C714.0156781 993.29040649 714.0156781 993.29040649 712.94847107 993.95913696 C678.20748963 1015.49484304 639.93465982 1025.46203686 599.25048828 1025.26983643 C596.54551789 1025.27561289 593.84061659 1025.28336228 591.13566536 1025.29347265 C585.30533209 1025.31134451 579.47523122 1025.31110031 573.64488792 1025.29823685 C564.97430104 1025.27915987 556.30390671 1025.28907744 547.63332072 1025.30427838 C532.13871971 1025.33048583 516.64422235 1025.32837373 501.1496117 1025.31388382 C487.58875329 1025.30126581 474.02793271 1025.29804119 460.46706963 1025.30399704 C459.56471808 1025.30437897 458.66236654 1025.30476089 457.73267101 1025.30515439 C454.06897818 1025.30671129 450.40528537 1025.30830331 446.74159258 1025.30995321 C412.42878299 1025.32522096 378.11603909 1025.31142449 343.80323965 1025.28446872 C313.37432001 1025.26074575 282.94550503 1025.26286529 252.5165863 1025.28677368 C218.26480743 1025.31359632 184.01308652 1025.32413581 149.7612986 1025.30871236 C146.10428267 1025.30710898 142.44726673 1025.30554476 138.79025078 1025.30399704 C137.88991664 1025.30360165 136.98958251 1025.30320627 136.06196552 1025.3027989 C122.51632652 1025.29713172 108.97072966 1025.30372513 95.42509651 1025.31639481 C80.00926412 1025.33074258 64.59355083 1025.32700804 49.17773313 1025.29999109 C40.56932843 1025.28539864 31.96118215 1025.2842209 23.3527846 1025.30322196 C17.58110409 1025.31454742 11.80962798 1025.30725484 6.03797744 1025.28569811 C2.76390506 1025.27396101 -0.50956875 1025.27224601 -3.78363972 1025.28772803 C-40.04711031 1025.44588906 -75.40081628 1016.84265879 -106.93824768 998.63491821 C-108.28209534 997.8653479 -108.28209534 997.8653479 -109.65309143 997.08023071 C-114.8197756 994.01109319 -119.7751738 990.73408614 -124.66481018 987.24038696 C-126.60053892 985.87340326 -128.56038034 984.58713961 -130.56324768 983.32241821 C-131.34699768 982.76554321 -132.13074768 982.20866821 -132.93824768 981.63491821 C-132.93824768 980.97491821 -132.93824768 980.31491821 -132.93824768 979.63491821 C-133.70137268 979.36679321 -134.46449768 979.09866821 -135.25074768 978.82241821 C-137.91811339 977.64381476 -138.96346996 976.68506913 -140.93824768 974.63491821 C-142.01510849 973.73131472 -143.09878561 972.83578799 -144.18824768 971.94741821 C-147.55308011 969.09862101 -150.3277396 965.9484763 -153.16871643 962.58804321 C-155.39604688 960.12962109 -157.84369716 958.09063258 -160.45777893 956.05679321 C-162.17492036 954.40761253 -162.92085142 952.77187605 -163.93824768 950.63491821 C-164.63949768 949.93366821 -165.34074768 949.23241821 -166.06324768 948.50991821 C-166.68199768 947.89116821 -167.30074768 947.27241821 -167.93824768 946.63491821 C-167.93824768 945.97491821 -167.93824768 945.31491821 -167.93824768 944.63491821 C-168.59824768 944.63491821 -169.25824768 944.63491821 -169.93824768 944.63491821 C-171.31962103 942.96025965 -172.61971484 941.2180269 -173.87574768 939.44741821 C-174.56539612 938.48448853 -175.25504456 937.52155884 -175.96559143 936.52944946 C-177.72741885 933.944273 -179.35387501 931.33097779 -180.93824768 928.63491821 C-181.37523987 927.9375354 -181.81223206 927.24015259 -182.26246643 926.52163696 C-203.80911569 891.76300219 -213.76962574 853.48064948 -213.56643677 812.77655029 C-213.57149513 810.06659153 -213.57853058 807.35670154 -213.58793491 804.64676082 C-213.60428336 798.80571087 -213.60250687 792.96489797 -213.58810806 787.12384605 C-213.56675535 778.43770969 -213.57444943 769.75175889 -213.58748328 761.06561462 C-213.60983526 745.54524483 -213.60400606 730.0249846 -213.58604718 714.50461484 C-213.57043334 700.92562194 -213.56463818 687.34666732 -213.56838799 673.76766586 C-213.56862479 672.86429845 -213.56886159 671.96093103 -213.56910556 671.03018885 C-213.5700806 667.36249735 -213.57110143 663.69480587 -213.57219067 660.02711441 C-213.58225483 625.68108541 -213.56406069 591.33512359 -213.53247031 556.98911039 C-213.50459913 526.51327519 -213.49965456 496.0375198 -213.5146637 465.56167603 C-213.51848653 457.75265571 -213.52228144 449.94363539 -213.52583408 442.13461494 C-213.5262719 441.17305437 -213.52670971 440.21149381 -213.52716079 439.22079504 C-213.53841231 413.70580913 -213.53104339 388.19082903 -213.51795334 362.67584503 C-213.51656485 359.92901808 -213.51518415 357.18219113 -213.51381492 354.43536417 C-213.51290554 352.61342962 -213.51198287 350.79149507 -213.51104681 348.96956053 C-213.50426642 335.39908305 -213.50689754 321.82862866 -213.51399422 308.25815201 C-213.52197759 292.82419855 -213.51533328 277.3903253 -213.48981918 261.95638938 C-213.47594712 253.33099575 -213.47285918 244.70576377 -213.48575388 236.08036769 C-213.4932601 230.30629823 -213.48601867 224.53236386 -213.46719577 218.75832064 C-213.45689375 215.47720252 -213.45477052 212.19646765 -213.46617431 208.9153439 C-213.51112154 194.80202545 -212.81707278 181.62035596 -209.46533989 167.88133441 C-208.69177188 164.58446213 -208.05689986 161.26288701 -207.41851977 157.93757463 C-206.63088291 154.16126299 -205.5398839 150.49758545 -204.37574768 146.82241821 C-204.12252747 146.02271606 -203.86930725 145.22301392 -203.6084137 144.39907837 C-201.50483188 137.96963745 -199.03238372 131.72942853 -196.37574768 125.50991821 C-196.01215149 124.6580896 -195.6485553 123.80626099 -195.27394104 122.92861938 C-192.81110064 117.30265975 -190.01120743 111.95002245 -186.93824768 106.63491821 C-186.42520081 105.73901978 -185.91215393 104.84312134 -185.38356018 103.92007446 C-182.31442266 98.75339029 -179.03741561 93.79799209 -175.54371643 88.90835571 C-174.17673273 86.97262697 -172.89046907 85.01278555 -171.62574768 83.00991821 C-171.06887268 82.22616821 -170.51199768 81.44241821 -169.93824768 80.63491821 C-169.27824768 80.63491821 -168.61824768 80.63491821 -167.93824768 80.63491821 C-167.67012268 79.87179321 -167.40199768 79.10866821 -167.12574768 78.32241821 C-165.94714423 75.65505251 -164.9883986 74.60969593 -162.93824768 72.63491821 C-162.03464418 71.55805741 -161.13911746 70.47438029 -160.25074768 69.38491821 C-157.40195048 66.02008579 -154.25180577 63.24542629 -150.89137268 60.40444946 C-148.43295056 58.17711902 -146.39396204 55.72946873 -144.36012268 53.11538696 C-142.710942 51.39824554 -141.07520551 50.65231447 -138.93824768 49.63491821 C-138.23699768 48.93366821 -137.53574768 48.23241821 -136.81324768 47.50991821 C-136.19449768 46.89116821 -135.57574768 46.27241821 -134.93824768 45.63491821 C-134.27824768 45.63491821 -133.61824768 45.63491821 -132.93824768 45.63491821 C-132.93824768 44.97491821 -132.93824768 44.31491821 -132.93824768 43.63491821 C-131.26358912 42.25354487 -129.52135636 40.95345106 -127.75074768 39.69741821 C-126.78781799 39.00776978 -125.82488831 38.31812134 -124.83277893 37.60757446 C-122.24760247 35.84574705 -119.63430726 34.21929089 -116.93824768 32.63491821 C-116.24086487 32.19792603 -115.54348206 31.76093384 -114.82496643 31.31069946 C-79.70739233 9.54154607 -41.11228894 -0.19440663 0 0 Z M-35.93824768 31.63491821 C-37.72084262 31.93250302 -39.50828262 32.20133389 -41.29762268 32.45523071 C-47.84657031 33.51283688 -53.92624873 35.35585464 -60.18824768 37.50991821 C-61.72352112 38.01845337 -61.72352112 38.01845337 -63.28981018 38.53726196 C-69.10824526 40.50416225 -74.51086751 42.77809796 -79.93824768 45.63491821 C-81.17495105 46.22562135 -82.41455997 46.81027979 -83.65699768 47.38882446 C-105.55508843 57.77612246 -126.72346258 73.65009786 -141.93824768 92.63491821 C-142.70652893 93.58882446 -143.47481018 94.54273071 -144.26637268 95.52554321 C-154.18845226 108.03406551 -162.1895051 121.17227845 -168.93824768 135.63491821 C-169.74068909 137.34614868 -169.74068909 137.34614868 -170.55934143 139.09194946 C-173.54496958 145.75338993 -176.00522473 152.50603495 -178.25074768 159.44741821 C-178.50549866 160.22383667 -178.76024963 161.00025513 -179.02272034 161.80020142 C-180.46892672 166.42717459 -181.30909646 170.83756889 -181.74757385 175.66397095 C-181.96563888 177.9180541 -182.39527761 180.06258621 -182.93824768 182.25991821 C-184.75849479 189.68311347 -185.08258524 196.76169244 -185.06688213 204.37417698 C-185.06863517 205.45017683 -185.07038821 206.52617668 -185.07219437 207.63478258 C-185.07685934 211.25305043 -185.07438756 214.87127819 -185.07196045 218.48954773 C-185.07382817 221.10485998 -185.07612872 223.72017196 -185.07882577 226.33548349 C-185.08397748 232.02843367 -185.08539737 237.72137534 -185.08436966 243.41432762 C-185.08284509 251.88028346 -185.08700573 260.34622988 -185.09224429 268.81218388 C-185.10191862 284.81316355 -185.10472857 300.81414001 -185.10530134 316.81512225 C-185.10576082 329.17324671 -185.10781883 341.5313699 -185.11100197 353.88949394 C-185.11189951 357.4463558 -185.11278933 361.00321766 -185.11367685 364.56007951 C-185.11389789 365.44432499 -185.11411894 366.32857047 -185.11434669 367.23961127 C-185.12050164 392.11494887 -185.12444718 416.99028603 -185.12400341 441.86562443 C-185.12398783 442.80362552 -185.12397225 443.74162662 -185.1239562 444.70805199 C-185.12387309 449.46225352 -185.12377405 454.21645505 -185.12367149 458.97065658 C-185.12365155 459.91486013 -185.1236316 460.85906367 -185.12361105 461.83187945 C-185.12357062 463.74129053 -185.12352882 465.65070162 -185.12348566 467.5601127 C-185.12287305 497.26075264 -185.13037666 526.96138115 -185.14405823 556.66201782 C-185.15942289 590.0301615 -185.1680242 623.39829767 -185.16709501 656.7664451 C-185.16702037 660.32550744 -185.16697167 663.88456978 -185.16694069 667.44363213 C-185.16692903 668.31996326 -185.16691738 669.19629439 -185.16690537 670.09918101 C-185.16687461 684.19509543 -185.17325765 698.29099994 -185.18187295 712.38691142 C-185.19035499 726.55804831 -185.19133509 740.72917071 -185.18476363 754.90030874 C-185.18107149 763.3157603 -185.1828903 771.73116778 -185.19270597 780.14661467 C-185.19871393 785.77373971 -185.19740144 791.4008329 -185.19023547 797.0279565 C-185.18636081 800.23033631 -185.18667233 803.43261437 -185.19369283 806.6349913 C-185.21861484 818.81133881 -185.2375266 830.6366375 -182.93824768 842.63491821 C-182.72171954 844.0224763 -182.50775388 845.41043948 -182.29762268 846.79898071 C-179.54258109 862.44620412 -175.18600814 877.57926213 -167.91090393 891.74136353 C-166.87025991 893.76727593 -165.85821582 895.80635136 -164.84449768 897.84585571 C-160.00241735 907.43084644 -154.45834409 916.11108486 -147.93824768 924.63491821 C-147.25891174 925.52694946 -146.57957581 926.41898071 -145.87965393 927.33804321 C-138.70087539 936.52456867 -131.01205062 945.2835999 -121.93824768 952.63491821 C-121.4487262 953.03678345 -120.95920471 953.43864868 -120.45484924 953.85269165 C-101.11938849 969.67471543 -80.55940167 980.84807357 -56.87574768 988.82241821 C-55.85158752 989.17755493 -54.82742737 989.53269165 -53.77223206 989.89859009 C-48.42252076 991.70005837 -43.4317746 993.03454305 -37.79933167 993.48379517 C-35.63292721 993.65971073 -33.60362735 994.0933315 -31.50074768 994.63491821 C-23.05285006 996.61801633 -14.51759289 996.78160721 -5.87669754 996.76355267 C-4.80230128 996.7653057 -3.72790502 996.76705874 -2.62095129 996.7688649 C0.97379674 996.77351125 4.56850409 996.77106291 8.16325378 996.76863098 C10.7687808 996.77049964 13.37430755 996.77280056 15.97983384 996.7754963 C21.64210868 996.78063896 27.30437497 996.78206948 32.96665192 996.78104019 C41.38694598 996.77951331 49.80723062 996.78368135 58.22752285 996.78891482 C74.14232091 996.79858017 90.05711575 996.80139875 105.97191641 996.80197188 C118.26274942 996.8024316 130.55358116 996.80449089 142.84441376 996.8076725 C146.38363592 996.80857006 149.92285808 996.80945987 153.46208024 996.81034738 C154.78190785 996.81067895 154.78190785 996.81067895 156.12839865 996.81101722 C180.87406511 996.81717043 205.61973114 996.82111788 230.36539841 996.82067394 C231.76453011 996.82065057 231.76453011 996.82065057 233.19192709 996.82062673 C237.9194065 996.82054363 242.6468859 996.82044459 247.3743653 996.82034203 C248.31324301 996.82032208 249.25212072 996.82030214 250.21944926 996.82028159 C252.11808808 996.82024115 254.0167269 996.82019935 255.91536571 996.8201562 C285.45537711 996.81954344 314.99537702 996.82705055 344.53538513 996.84072876 C377.73105437 996.85609339 410.92671606 996.86469476 444.12238908 996.86376554 C447.66286866 996.86369091 451.20334824 996.8636422 454.74382782 996.86361122 C456.05144109 996.86359374 456.05144109 996.86359374 457.38547078 996.86357591 C471.40590387 996.86354515 485.42632699 996.86992734 499.44675711 996.87854349 C513.54023357 996.88702533 527.63369546 996.88800573 541.72717306 996.88143416 C550.09598259 996.87774217 558.4647478 996.87956042 566.83355263 996.88937651 C573.08778184 996.8960915 579.34196394 996.89231367 585.59619096 996.88450328 C588.12236967 996.8829658 590.64855318 996.88479378 593.17472622 996.89036336 C605.31610277 996.91535516 617.09769046 996.92101185 629.06175232 994.63491821 C630.71750106 994.36876015 632.37366297 994.10513819 634.03050232 993.84585571 C667.87856627 987.82263801 703.42314018 971.1023055 727.06175232 945.63491821 C732.06175232 940.63491821 732.06175232 940.63491821 733.91331482 938.95913696 C752.10034744 921.92946096 766.10972274 896.74694721 773.33186427 872.96654747 C773.84925312 871.31374746 774.39851759 869.67077295 774.96961197 868.03575297 C782.22460266 847.22024297 783.80171607 826.15943966 783.68321228 804.28149414 C783.68755377 801.63865561 783.69387666 798.99588726 783.70257235 796.35306609 C783.71738307 790.66184167 783.71410225 784.97086593 783.69815445 779.27964783 C783.67450554 770.81648967 783.68000287 762.35351487 783.69086335 753.89033945 C783.70935232 738.76874181 783.69982081 723.64726286 783.67838571 708.52567499 C783.65976947 695.29813018 783.65141184 682.07062509 783.6529541 668.84306717 C783.65304578 667.96290101 783.65313745 667.08273486 783.65323191 666.175897 C783.65362511 662.60240122 783.65407475 659.02890545 783.6546033 655.45540968 C783.65946408 621.99982076 783.63687825 588.54430222 783.60064707 555.08873517 C783.56863062 525.39822304 783.55660895 495.70777096 783.56272888 466.01724243 C783.56311573 464.10916386 783.56350219 462.20108528 783.56388825 460.2930067 C783.56417527 458.87799076 783.56417527 458.87799076 783.56446809 457.43438863 C783.5654225 452.68520387 783.56633686 447.93601911 783.56720734 443.18683434 C783.56738113 442.24978238 783.56755492 441.31273043 783.56773398 440.34728296 C783.57209231 415.49130129 783.56206876 390.63532606 783.54736948 365.77934897 C783.54684934 364.89483614 783.5463292 364.01032331 783.54579329 363.09900707 C783.54527395 362.21615819 783.54475461 361.33330931 783.54421952 360.42370743 C783.54370178 359.54252811 783.54318404 358.66134879 783.54265061 357.75346707 C783.54160254 355.9789715 783.54054233 354.20447593 783.53946989 352.42998037 C783.53210216 340.08206124 783.52999868 327.73415128 783.5314639 315.38623022 C783.53331228 299.47788135 783.52519484 283.56958895 783.49982244 267.6612585 C783.48669636 259.25743314 783.48162393 250.85369788 783.48846098 242.44986451 C783.49218943 236.82735292 783.48489742 231.20492313 783.46886859 225.58243339 C783.46004754 222.38548012 783.45738888 219.18874579 783.46479577 215.99178354 C783.49301861 202.50249297 783.01273803 189.82906004 780.06175232 176.63491821 C779.73827145 174.96911344 779.41792924 173.302685 779.10472107 171.63491821 C776.39765182 158.65346797 772.66305624 145.87331956 766.38597107 134.13101196 C765.40080137 132.27401067 764.47489423 130.38532855 763.58128357 128.48257446 C756.9900374 114.5642423 748.10115844 102.28581572 738.06175232 90.63491821 C737.38370544 89.8344104 736.70565857 89.03390259 736.00706482 88.20913696 C732.27263639 83.88620911 728.39516087 79.97607244 724.02659607 76.29507446 C722.7864898 75.24727095 721.56676857 74.17438809 720.37815857 73.06851196 C685.16933088 40.52583158 637.54542849 27.75327431 590.68814087 28.02018738 C588.04316471 28.01656413 585.3982585 28.01095514 582.75329858 28.00296539 C577.05747867 27.98967671 571.3619125 27.99448987 565.66610718 28.01197433 C557.19628807 28.03790119 548.72664535 28.03462576 540.25679985 28.02593175 C525.99781082 28.01213974 511.73892835 28.02165009 497.47995567 28.04513741 C483.3709899 28.06835778 469.26207134 28.08194653 455.15308571 28.08265495 C453.83218342 28.08273513 453.83218342 28.08273513 452.48459623 28.08281692 C448.90938674 28.08300555 445.33417726 28.0831271 441.75896776 28.08315924 C408.28914074 28.08349932 374.81938531 28.11048489 341.34958563 28.15135134 C311.63896991 28.18751278 281.92839576 28.20661725 252.21775818 28.2093811 C250.79921781 28.20951836 250.79921781 28.20951836 249.35202006 28.20965839 C246.49094129 28.20993483 243.62986252 28.21020632 240.76878375 28.21047741 C236.96828059 28.21084046 233.16777744 28.21121386 229.36727428 28.21159458 C227.96050826 28.21172992 227.96050826 28.21172992 226.52532273 28.211868 C197.2074001 28.21485093 167.88948516 28.23231523 138.57156981 28.25228219 C128.85533881 28.25889108 119.13910901 28.26458359 109.42287612 28.26747251 C108.54933938 28.26773368 107.67580263 28.26799486 106.77579508 28.26826395 C105.46830273 28.26865263 105.46830273 28.26865263 104.1343964 28.26904918 C87.33877794 28.27404904 70.54319013 28.28529115 53.74758848 28.31034947 C45.33648501 28.32273073 36.92541878 28.32979915 28.51430599 28.3290071 C22.22929086 28.32904946 15.94433397 28.33958337 9.65933672 28.35418402 C7.12088403 28.35849444 4.582423 28.35947623 2.0439681 28.35675795 C-17.39180973 27.33619284 -17.39180973 27.33619284 -35.93824768 31.63491821 Z " fill="#0B0B0B" transform="translate(212.93824768066406,-0.634918212890625)"/>
</svg>
